<svg width="326" height="175" viewBox="0 0 326 175" fill="none" xmlns="http://www.w3.org/2000/svg">
<path fill-rule="evenodd" clip-rule="evenodd" d="M-52.5682 0.289762L-33.083 2.38822C-12.2762 0.525527 29.3372 -3.19985 63.0219 16.8416C96.7065 36.8831 123.784 76.7303 162.754 80.9272C201.725 85.1241 251.267 57.6319 280.987 89.5568C310.708 121.482 317.963 220.746 321.59 270.378L325.218 320.01L282.931 446.767L264.767 440.707C246.603 434.648 210.276 422.529 173.948 410.409C137.621 398.29 101.293 386.171 64.9654 374.052C28.6378 361.933 -7.68975 349.813 -44.0173 337.694C-80.3449 325.575 -116.672 313.456 -134.836 307.396L-153 301.337L-52.5682 0.289762Z" fill="#E6E38D" fill-opacity="0.35"/>
</svg>
