<svg width="263" height="114" viewBox="0 0 263 114" fill="none" xmlns="http://www.w3.org/2000/svg">
<g filter="url(#filter0_i_148_12)">
<path d="M55.8489 45.76C55.8489 44.992 55.3369 44.352 54.3129 43.84C53.2889 43.264 52.1049 42.976 50.7609 42.976C49.4169 42.976 48.1049 43.296 46.8249 43.936C49.0009 45.92 51.4009 46.912 54.0249 46.912C54.6009 46.912 55.0489 46.784 55.3689 46.528C55.6889 46.208 55.8489 45.952 55.8489 45.76ZM60.3609 29.728L60.5529 27.136C60.5529 25.728 60.0089 24.416 58.9209 23.2C57.8969 21.92 56.4889 21.28 54.6969 21.28C51.6249 21.28 48.8409 22.656 46.3449 25.408C43.8489 28.16 42.6009 31.104 42.6009 34.24C42.6009 37.312 43.4009 39.904 45.0009 42.016C47.7529 40.8 50.3129 40.192 52.6809 40.192C55.0489 40.192 56.9369 40.608 58.3449 41.44C59.8169 42.208 60.5529 43.392 60.5529 44.992C60.5529 46.592 59.7529 47.776 58.1529 48.544C56.6169 49.312 54.8889 49.696 52.9689 49.696C49.3849 49.696 46.1209 48.704 43.1769 46.72C41.6409 48.32 40.3929 50.208 39.4329 52.384C38.5369 54.56 38.0889 56.576 38.0889 58.432C38.0889 62.208 39.3049 65.664 41.7369 68.8C44.1689 71.936 47.4009 73.504 51.4329 73.504C59.8809 73.504 66.7609 67.936 72.0729 56.8C73.8649 53.152 74.9849 51.328 75.4329 51.328C75.9449 51.328 76.2009 51.584 76.2009 52.096C76.2009 54.656 74.6009 58.528 71.4009 63.712C68.2649 68.832 64.8409 72.416 61.1289 74.464C57.4809 76.448 52.9689 77.44 47.5929 77.44C42.2809 77.44 38.0889 75.872 35.0169 72.736C31.9449 69.6 30.4089 65.696 30.4089 61.024C30.4089 57.952 31.3049 55.008 33.0969 52.192C34.9529 49.312 37.3209 46.848 40.2009 44.8C37.1929 42.304 35.6889 39.296 35.6889 35.776C35.6889 30.912 37.5769 26.816 41.3529 23.488C45.1289 20.096 49.7049 18.4 55.0809 18.4C58.6009 18.4 61.5449 19.328 63.9129 21.184C66.3449 22.976 67.5609 25.12 67.5609 27.616C67.5609 29.024 67.1449 30.176 66.3129 31.072C65.4809 31.968 64.4249 32.416 63.1449 32.416C61.2889 32.416 60.3609 31.52 60.3609 29.728ZM109.469 60.16C109.917 59.52 110.557 58.4 111.389 56.8C113.437 53.152 114.653 51.328 115.037 51.328C115.485 51.328 115.709 51.584 115.709 52.096C115.709 55.232 114.077 59.2 110.813 64C104.925 72.64 97.0854 76.96 87.2934 76.96C84.5414 76.96 82.0134 76.32 79.7094 75.04C77.4054 73.76 75.5814 72.128 74.2374 70.144C71.4854 66.112 70.1094 61.888 70.1094 57.472C70.1094 46.336 72.9894 37.376 78.7494 30.592C84.5734 23.744 91.4534 20.32 99.3894 20.32C102.397 20.32 104.861 21.216 106.781 23.008C108.701 24.736 109.661 26.944 109.661 29.632C109.661 32.32 108.989 34.816 107.645 37.12C106.301 39.424 104.669 40.576 102.749 40.576C100.893 40.576 99.9654 40.064 99.9654 39.04C99.9654 37.888 100.573 36.576 101.789 35.104C103.069 33.632 103.709 32.16 103.709 30.688C103.709 26.144 101.277 23.872 96.4134 23.872C91.6134 23.872 87.2614 27.104 83.3574 33.568C79.4534 40.032 77.5014 46.688 77.5014 53.536C77.5014 58.272 78.8454 62.496 81.5334 66.208C84.2214 69.856 87.9974 71.68 92.8614 71.68C98.6214 71.68 104.157 67.84 109.469 60.16ZM116.104 28.96C116.104 30.496 116.488 31.904 117.256 33.184C118.024 34.4 118.408 35.392 118.408 36.16C118.408 36.864 118.216 37.504 117.832 38.08C117.512 38.656 117.064 38.944 116.488 38.944C115.4 38.944 114.504 38.016 113.8 36.16C113.096 34.304 112.744 32.352 112.744 30.304C112.744 27.232 113.864 24.48 116.104 22.048C118.408 19.616 121.32 18.4 124.84 18.4C127.208 18.4 128.968 19.552 130.12 21.856C131.336 24.096 131.944 26.656 131.944 29.536C131.944 32.416 131.848 35.136 131.656 37.696C131.528 40.192 131.4 42.144 131.272 43.552C131.144 44.896 130.888 47.072 130.504 50.08C130.12 53.024 129.864 55.072 129.736 56.224C134.856 56.224 140.232 53.632 145.864 48.448C146.632 39.232 147.688 32.032 149.032 26.848C150.44 21.6 151.848 17.92 153.256 15.808C154.664 13.696 156.168 12.64 157.768 12.64C159.432 12.64 160.776 13.376 161.8 14.848C162.888 16.32 163.432 18.08 163.432 20.128C163.432 27.68 160.072 35.84 153.352 44.608C152.968 49.664 152.776 54.336 152.776 58.624C152.776 62.848 153.384 66.976 154.6 71.008C155.88 74.976 156.52 77.184 156.52 77.632C156.52 78.144 156.168 78.528 155.464 78.784C154.76 79.104 153.992 79.264 153.16 79.264C150.92 79.264 149.096 78.688 147.688 77.536C146.984 76.96 146.408 75.008 145.96 71.68C145.512 68.352 145.288 65.248 145.288 62.368C145.288 59.424 145.384 56.256 145.576 52.864C139.88 57.728 134.472 60.256 129.352 60.448C129.288 61.344 129.224 62.848 129.16 64.96C129.096 67.008 129 68.544 128.872 69.568C128.744 70.528 128.488 71.648 128.104 72.928C127.464 75.296 125.928 76.48 123.496 76.48C122.024 76.48 121.288 75.232 121.288 72.736C121.288 70.176 121.672 65.76 122.44 59.488C119.56 58.272 118.12 56.128 118.12 53.056C118.12 50.816 118.696 48.928 119.848 47.392C121 45.792 122.408 44.992 124.072 44.992C124.648 39.104 124.936 34.56 124.936 31.36C124.936 25.6 124.04 22.72 122.248 22.72C118.152 22.72 116.104 24.8 116.104 28.96ZM160.36 21.76C160.36 20.8 160.2 19.936 159.88 19.168C159.624 18.336 159.272 17.92 158.824 17.92C157.032 17.92 155.4 24.864 153.928 38.752C158.216 32.224 160.36 26.56 160.36 21.76ZM123.784 48.064C122.888 48.704 122.44 49.568 122.44 50.656C122.44 51.744 122.696 52.64 123.208 53.344L123.784 48.064ZM164.469 54.592C164.469 50.304 165.269 46.08 166.869 41.92C168.533 37.696 170.901 34.208 173.973 31.456C174.741 27.296 176.725 23.936 179.925 21.376C183.189 18.752 187.829 17.44 193.845 17.44C199.861 17.44 204.661 19.808 208.245 24.544C211.893 29.216 213.717 35.328 213.717 42.88C213.717 47.808 212.981 52.48 211.509 56.896C214.453 55.872 217.109 54.592 219.477 53.056C221.909 51.456 223.157 50.656 223.221 50.656C223.925 50.656 224.277 51.072 224.277 51.904C224.277 52.608 222.741 53.984 219.669 56.032C216.597 58.016 213.429 59.424 210.165 60.256C207.797 65.44 204.437 69.536 200.085 72.544C195.733 75.488 190.453 76.96 184.245 76.96C178.101 76.96 173.269 74.912 169.749 70.816C166.229 66.656 164.469 61.248 164.469 54.592ZM204.981 58.048C205.813 55.168 206.229 51.968 206.229 48.448C206.229 40.896 204.789 34.496 201.909 29.248C199.093 24 195.061 21.376 189.813 21.376C187.573 21.376 185.333 22.016 183.093 23.296C180.917 24.512 179.349 26.176 178.389 28.288C181.717 26.432 185.077 25.504 188.469 25.504C191.925 25.504 193.653 25.984 193.653 26.944C193.653 27.52 193.429 27.968 192.981 28.288C192.533 28.608 192.085 28.768 191.637 28.768C186.133 28.768 181.461 30.624 177.621 34.336C178.133 40.864 180.981 46.464 186.165 51.136C191.413 55.744 197.685 58.048 204.981 58.048ZM187.893 72.064C195.573 72.064 200.917 68.448 203.925 61.216C196.245 61.216 189.557 59.2 183.861 55.168C178.229 51.136 174.901 45.856 173.877 39.328C172.085 42.72 171.189 46.528 171.189 50.752C171.189 56.576 172.789 61.6 175.989 65.824C179.253 69.984 183.221 72.064 187.893 72.064Z" fill="url(#paint0_linear_148_12)"/>
</g>
<path d="M5.25016 102.288C4.32216 102.288 3.59416 102.016 3.06616 101.472C2.55416 100.928 2.29816 100.168 2.29816 99.192C2.29816 98.392 2.44216 97.608 2.73016 96.84C2.25016 96.84 1.87416 96.792 1.60216 96.696C1.15416 96.6 0.930156 96.432 0.930156 96.192C0.930156 96.096 1.00216 96.048 1.14616 96.048C1.25816 96.048 1.38616 96.056 1.53016 96.072C1.69016 96.072 1.87416 96.08 2.08216 96.096C2.30616 96.112 2.49816 96.128 2.65816 96.144C2.81816 96.144 2.94616 96.144 3.04216 96.144L3.88216 94.176C4.07416 93.712 4.25016 93.336 4.41016 93.048C4.57016 92.76 4.69816 92.56 4.79416 92.448C5.03416 92.192 5.35416 92.064 5.75416 92.064C6.13816 92.064 6.33016 92.144 6.33016 92.304L5.49016 93.624C5.18616 94.104 4.91416 94.56 4.67416 94.992C4.45016 95.424 4.25016 95.832 4.07416 96.216C5.06616 96.216 5.85816 96.216 6.45016 96.216C7.04216 96.2 7.44216 96.192 7.65016 96.192H7.84216C8.03416 96.192 8.13016 96.216 8.13016 96.264C8.13016 96.36 7.93816 96.448 7.55416 96.528C6.86616 96.608 6.21816 96.672 5.61016 96.72C5.00216 96.768 4.42616 96.792 3.88216 96.792C3.72216 97.208 3.58616 97.648 3.47416 98.112C3.37816 98.56 3.33016 98.992 3.33016 99.408C3.33016 100.032 3.47416 100.576 3.76216 101.04C4.05016 101.504 4.56216 101.736 5.29816 101.736C6.17816 101.736 6.87416 101.528 7.38616 101.112C7.91416 100.68 8.45016 100.128 8.99416 99.456C9.07416 99.36 9.14616 99.312 9.21016 99.312C9.25816 99.312 9.28216 99.352 9.28216 99.432C9.28216 99.544 9.21816 99.688 9.09016 99.864C8.40216 100.744 7.75416 101.368 7.14616 101.736C6.55416 102.104 5.92216 102.288 5.25016 102.288ZM9.45672 102.504C9.26472 102.504 9.06472 102.424 8.85672 102.264C8.66472 102.12 8.56872 101.952 8.56872 101.76C8.56872 101.248 8.76872 100.336 9.16872 99.024C9.77672 97.024 10.5447 95.16 11.4727 93.432C12.8487 90.808 14.1527 89.496 15.3847 89.496C16.1367 89.496 16.5127 90.12 16.5127 91.368C16.5127 92.28 15.8407 93.424 14.4967 94.8L11.4007 97.68C11.2887 97.792 11.1607 97.928 11.0167 98.088C10.8887 98.232 10.7367 98.408 10.5607 98.616C10.4487 98.792 10.2807 99.168 10.0567 99.744C9.86472 100.32 9.76872 100.72 9.76872 100.944C9.76872 101.12 9.80872 101.272 9.88872 101.4C9.92072 101.368 10.0087 101.296 10.1527 101.184C10.3127 101.056 10.5207 100.88 10.7767 100.656C12.3127 99.36 13.4407 98.712 14.1607 98.712C14.3047 98.712 14.4247 98.832 14.5207 99.072C14.6327 99.312 14.7447 99.664 14.8567 100.128C15.1287 101.136 15.5527 101.64 16.1287 101.64C16.6407 101.64 17.3207 101.24 18.1687 100.44C18.3127 100.28 18.4567 100.12 18.6007 99.96C18.7607 99.784 18.9047 99.616 19.0327 99.456C19.1127 99.328 19.1927 99.264 19.2727 99.264C19.3687 99.264 19.3927 99.328 19.3447 99.456C19.3287 99.52 19.2967 99.6 19.2487 99.696C19.2007 99.776 19.1607 99.832 19.1287 99.864C18.8087 100.296 18.4887 100.688 18.1687 101.04C17.7687 101.424 17.3687 101.728 16.9687 101.952C16.5687 102.176 16.1847 102.288 15.8167 102.288C15.4807 102.288 15.1607 102.192 14.8567 102C14.5687 101.792 14.3127 101.472 14.0887 101.04C13.6407 100.176 13.3047 99.744 13.0807 99.744C12.7767 99.744 12.3927 99.912 11.9287 100.248C11.4647 100.568 10.9367 101.072 10.3447 101.76L9.76872 102.432C9.65672 102.48 9.55272 102.504 9.45672 102.504ZM10.7767 97.632C11.3047 97.264 11.8407 96.832 12.3847 96.336C12.9447 95.824 13.5047 95.264 14.0647 94.656C15.4567 93.088 16.1527 91.872 16.1527 91.008C16.1527 90.496 15.9527 90.24 15.5527 90.24C14.4647 90.24 13.0407 92.272 11.2807 96.336C10.9447 97.072 10.7767 97.504 10.7767 97.632ZM21.432 102.192C20.776 102.192 20.208 102.008 19.728 101.64C19.264 101.256 19.032 100.68 19.032 99.912C19.032 99.064 19.312 98.192 19.872 97.296C20.16 96.832 20.512 96.464 20.928 96.192C21.344 95.904 21.712 95.76 22.032 95.76C22.496 95.76 22.728 96.04 22.728 96.6C22.728 97.08 22.408 97.664 21.768 98.352C21.176 98.96 20.616 99.376 20.088 99.6C20.072 99.664 20.056 99.736 20.04 99.816C20.04 99.88 20.04 99.952 20.04 100.032C20.04 101.04 20.64 101.544 21.84 101.544C22.528 101.544 23.168 101.336 23.76 100.92C24.368 100.488 24.896 100 25.344 99.456C25.424 99.36 25.496 99.312 25.56 99.312C25.624 99.312 25.656 99.344 25.656 99.408C25.656 99.472 25.624 99.56 25.56 99.672C25.496 99.768 25.448 99.832 25.416 99.864C25.16 100.216 24.888 100.528 24.6 100.8C24.328 101.072 23.96 101.336 23.496 101.592C23.16 101.8 22.808 101.952 22.44 102.048C22.088 102.144 21.752 102.192 21.432 102.192ZM20.184 99.096C20.392 98.984 20.592 98.856 20.784 98.712C20.992 98.552 21.192 98.368 21.384 98.16C21.816 97.648 22.032 97.2 22.032 96.816C22.032 96.576 21.96 96.456 21.816 96.456C21.688 96.456 21.52 96.568 21.312 96.792C21.12 97 20.936 97.264 20.76 97.584C20.456 98.208 20.264 98.712 20.184 99.096ZM37.6078 105.336C37.5278 105.336 37.4878 105.192 37.4878 104.904C37.4878 104.824 37.4878 104.744 37.4878 104.664C37.4878 104.584 37.4958 104.496 37.5118 104.4C37.5438 104.176 37.5758 103.944 37.6078 103.704C37.6398 103.464 37.6718 103.24 37.7038 103.032C37.5438 103.08 37.3838 103.104 37.2238 103.104C36.1838 103.104 35.6638 102.304 35.6638 100.704C35.6638 99.984 35.7758 99.144 35.9998 98.184C36.2398 97.224 36.6078 96.152 37.1038 94.968L39.6238 89.088C39.8638 88.528 40.0318 88.008 40.1278 87.528C40.2398 87.048 40.2958 86.624 40.2958 86.256C40.2958 85.136 39.7678 84.576 38.7118 84.576C38.2958 84.576 37.8398 84.656 37.3438 84.816C35.9358 85.248 34.6078 86 33.3598 87.072C32.7358 87.568 32.1838 88.112 31.7038 88.704C31.2238 89.296 30.7998 89.92 30.4318 90.576C30.0318 91.312 29.7278 92.008 29.5198 92.664C29.3278 93.32 29.2318 93.936 29.2318 94.512C29.2318 96.432 29.9518 97.392 31.3918 97.392C31.7598 97.392 32.1838 97.304 32.6638 97.128C32.9358 97.016 33.1998 96.88 33.4558 96.72C33.7278 96.544 33.9918 96.328 34.2478 96.072C34.3758 95.896 34.5038 95.736 34.6318 95.592C34.7758 95.432 34.9198 95.272 35.0638 95.112C35.2238 94.92 35.3038 94.896 35.3038 95.04V95.136C35.3038 95.2 35.2798 95.28 35.2318 95.376C34.6238 96.464 33.7518 97.184 32.6158 97.536C32.3438 97.6 32.0798 97.656 31.8238 97.704C31.5678 97.752 31.3198 97.776 31.0798 97.776C29.2718 97.776 28.3678 96.68 28.3678 94.488C28.3678 93 28.8478 91.536 29.8078 90.096C31.9678 86.976 34.4718 85.056 37.3198 84.336C37.5918 84.272 37.8478 84.232 38.0878 84.216C38.3438 84.184 38.5838 84.168 38.8078 84.168C40.5518 84.168 41.4238 85 41.4238 86.664C41.4238 87.016 41.3758 87.416 41.2798 87.864C41.1998 88.312 41.0718 88.792 40.8958 89.304L38.3998 95.208C37.8878 96.424 37.5118 97.496 37.2718 98.424C37.0478 99.352 36.9358 100.128 36.9358 100.752C36.9358 101.92 37.1918 102.504 37.7038 102.504H37.7998C37.8958 101.944 38.0158 101.352 38.1598 100.728C38.3038 100.104 38.4558 99.472 38.6158 98.832C38.7278 98.448 38.8558 98.032 38.9998 97.584C39.1438 97.12 39.2958 96.64 39.4558 96.144C39.3598 96.144 39.2958 96.152 39.2638 96.168L39.2398 96.144C39.2078 96.032 39.3838 95.736 39.7678 95.256C40.1838 94.12 40.6558 92.992 41.1838 91.872C41.7278 90.736 42.3278 89.6 42.9838 88.464C44.5038 85.824 45.7998 84.232 46.8718 83.688C46.9518 83.64 47.0318 83.616 47.1118 83.616C47.3198 83.616 47.4238 83.696 47.4238 83.856C47.4238 83.936 47.3758 84.016 47.2798 84.096L46.2958 84.792C45.7998 85.192 45.2558 85.8 44.6638 86.616C44.0878 87.432 43.4718 88.456 42.8158 89.688C41.6958 91.704 40.8318 93.504 40.2238 95.088C40.5118 95.264 40.6958 95.504 40.7758 95.808C40.8078 95.968 40.7678 96.184 40.6558 96.456C40.5598 96.728 40.4398 96.888 40.2958 96.936C40.1358 96.68 39.9758 96.48 39.8158 96.336C39.4478 97.424 39.1198 98.48 38.8318 99.504C38.5438 100.512 38.3118 101.488 38.1358 102.432C39.4158 102 41.1598 100.152 43.3678 96.888C45.4638 93.8 46.7038 91.44 47.0878 89.808C47.1998 89.408 47.2558 89.208 47.2558 89.208C47.3198 89.032 47.4958 88.944 47.7838 88.944C48.1198 88.944 48.2878 89.04 48.2878 89.232C48.2878 89.248 48.2238 89.448 48.0958 89.832C47.5678 91.352 47.1758 92.88 46.9198 94.416C46.6638 95.936 46.5358 97.456 46.5358 98.976C46.5358 101.312 46.9918 102.48 47.9038 102.48C48.4798 102.48 49.1358 102 49.8718 101.04C49.9838 100.896 50.1598 100.648 50.3998 100.296C50.6398 99.928 50.9358 99.456 51.2878 98.88C51.3678 98.768 51.4398 98.712 51.5038 98.712C51.5998 98.712 51.6158 98.792 51.5518 98.952C50.1438 101.512 48.8638 102.792 47.7118 102.792C46.0478 102.792 45.2158 101.584 45.2158 99.168C45.2158 98.464 45.2878 97.64 45.4318 96.696C45.5918 95.752 45.8158 94.696 46.1038 93.528C42.7758 98.952 40.0958 102.08 38.0638 102.912C37.9518 103.52 37.8558 104.176 37.7758 104.88C37.7598 105.184 37.7038 105.336 37.6078 105.336ZM50.6235 102.216C50.5115 102.216 50.3915 102.144 50.2635 102C50.1515 101.856 50.0955 101.728 50.0955 101.616V101.544L50.3115 101.136C50.4395 100.768 50.5675 100.328 50.6955 99.816C50.8235 99.288 50.9435 98.688 51.0555 98.016C51.0715 97.856 51.0955 97.688 51.1275 97.512C51.1595 97.32 51.1915 97.104 51.2235 96.864C51.3035 96.544 51.5515 96.384 51.9675 96.384C52.0955 96.384 52.1595 96.432 52.1595 96.528C52.1595 96.56 52.1435 96.672 52.1115 96.864C52.0795 97.056 52.0315 97.32 51.9675 97.656C51.9035 98.024 51.8235 98.424 51.7275 98.856C51.6475 99.288 51.5515 99.752 51.4395 100.248L52.5675 98.352C53.1275 97.408 53.5995 96.936 53.9835 96.936C54.2235 96.936 54.3515 97.08 54.3675 97.368C54.4155 98.04 54.4475 98.704 54.4635 99.36C54.4955 100.016 54.5835 100.56 54.7275 100.992C54.8875 101.424 55.1675 101.64 55.5675 101.64C55.8395 101.64 56.1035 101.584 56.3595 101.472C56.6315 101.36 56.9355 101.152 57.2715 100.848C57.6075 100.528 58.0075 100.064 58.4715 99.456C58.4875 99.424 58.5195 99.384 58.5675 99.336C58.6155 99.288 58.6715 99.264 58.7355 99.264C58.7995 99.264 58.8315 99.296 58.8315 99.36C58.8315 99.424 58.7915 99.512 58.7115 99.624C58.6475 99.736 58.5995 99.816 58.5675 99.864C58.1355 100.504 57.6475 101.04 57.1035 101.472C56.5595 101.904 56.0475 102.12 55.5675 102.12C54.8635 102.12 54.3435 101.768 54.0075 101.064C53.6875 100.344 53.4635 99.328 53.3355 98.016C53.0795 98.288 52.7755 98.696 52.4235 99.24C52.0875 99.784 51.6955 100.48 51.2475 101.328C51.2155 101.408 51.1675 101.504 51.1035 101.616C51.0395 101.712 50.9675 101.84 50.8875 102C50.8235 102.144 50.7355 102.216 50.6235 102.216ZM59.3413 103.08C58.5253 103.08 58.1173 102.56 58.1173 101.52C58.1173 100.88 58.2853 100.104 58.6213 99.192C58.7973 98.728 58.9813 98.336 59.1733 98.016C59.3653 97.68 59.5733 97.408 59.7973 97.2C60.0373 96.96 60.2773 96.84 60.5173 96.84C60.7093 96.84 60.8053 96.896 60.8053 97.008C60.8053 97.056 60.7893 97.096 60.7573 97.128C60.5493 97.384 60.3413 97.704 60.1333 98.088C59.9253 98.472 59.7093 98.904 59.4853 99.384C59.0213 100.456 58.7893 101.264 58.7893 101.808C58.7893 102.32 58.9813 102.576 59.3653 102.576C60.1973 102.576 61.1893 101.384 62.3413 99C62.4053 98.84 62.4693 98.68 62.5333 98.52C62.6133 98.344 62.7093 98.152 62.8213 97.944C62.8853 97.832 63.0213 97.776 63.2293 97.776C63.4853 97.776 63.6293 97.888 63.6613 98.112C63.2133 99.104 62.9893 99.936 62.9893 100.608C62.9893 100.896 63.0373 101.128 63.1333 101.304C63.2453 101.48 63.3893 101.568 63.5653 101.568C63.7573 101.568 63.9493 101.448 64.1413 101.208C64.3493 100.968 64.5333 100.672 64.6933 100.32C64.8693 99.968 65.0053 99.624 65.1013 99.288C65.2133 98.952 65.2693 98.696 65.2693 98.52C65.2693 98.424 65.2613 98.28 65.2453 98.088C65.2293 97.88 65.2213 97.736 65.2213 97.656C65.2213 97 65.3733 96.672 65.6773 96.672C65.9653 96.672 66.1093 96.944 66.1093 97.488C66.1093 97.6 66.0773 97.784 66.0133 98.04C65.9653 98.28 65.9413 98.416 65.9413 98.448C65.9573 98.768 66.0133 99.104 66.1093 99.456C66.2053 99.792 66.3653 100.08 66.5893 100.32C66.8293 100.56 67.1493 100.68 67.5493 100.68C67.7733 100.68 68.0453 100.592 68.3653 100.416C68.6853 100.224 69.0133 99.904 69.3493 99.456C69.3813 99.424 69.4293 99.408 69.4933 99.408C69.5413 99.408 69.5653 99.456 69.5653 99.552C69.5653 99.648 69.5253 99.752 69.4453 99.864C69.2373 100.152 68.9653 100.424 68.6293 100.68C68.2933 100.92 67.9333 101.04 67.5493 101.04C66.9253 101.04 66.4613 100.864 66.1573 100.512C65.8693 100.144 65.6453 99.696 65.4853 99.168C65.4213 99.568 65.2933 100 65.1013 100.464C64.9253 100.912 64.6933 101.304 64.4053 101.64C64.1173 101.96 63.7893 102.12 63.4213 102.12C62.9253 102.12 62.5893 101.936 62.4133 101.568C62.2533 101.2 62.1733 100.776 62.1733 100.296C62.0133 100.712 61.7653 101.136 61.4293 101.568C61.0933 102 60.7333 102.36 60.3493 102.648C59.9813 102.936 59.6453 103.08 59.3413 103.08ZM73.1923 102.12C72.6163 102.12 72.3283 101.76 72.3283 101.04C72.3283 100.656 72.4723 100.176 72.7603 99.6C73.0323 98.96 73.1683 98.496 73.1683 98.208C73.1683 98 73.0883 97.84 72.9283 97.728C72.7843 97.616 72.6003 97.512 72.3763 97.416C72.2163 97.336 72.0483 97.24 71.8723 97.128C71.6963 97.016 71.5523 96.904 71.4403 96.792C71.3283 97.032 71.0803 97.448 70.6963 98.04C70.3123 98.632 69.8963 99.24 69.4483 99.864C69.3843 99.944 69.3203 99.984 69.2563 99.984C69.1923 99.984 69.1603 99.928 69.1603 99.816C69.1603 99.704 69.2243 99.584 69.3523 99.456C69.4803 99.296 69.6643 99.04 69.9043 98.688C70.1443 98.32 70.3843 97.928 70.6243 97.512C70.8643 97.08 71.0483 96.704 71.1763 96.384C71.0963 96.112 71.0323 95.88 70.9843 95.688C70.9363 95.496 70.9123 95.304 70.9123 95.112C70.9123 94.776 71.0083 94.472 71.2003 94.2C71.3923 93.928 71.6403 93.792 71.9443 93.792C72.3763 93.792 72.5923 94.048 72.5923 94.56C72.5923 95.12 72.3763 95.704 71.9443 96.312C72.0083 96.408 72.0883 96.488 72.1843 96.552C72.2803 96.616 72.4323 96.688 72.6403 96.768C72.7523 96.816 72.8563 96.848 72.9523 96.864C73.0643 96.88 73.1603 96.888 73.2403 96.888C73.3683 96.888 73.4723 96.88 73.5523 96.864C73.6483 96.848 73.7283 96.84 73.7923 96.84C73.8883 96.84 74.0003 96.896 74.1283 97.008C74.2723 97.104 74.3443 97.256 74.3443 97.464C74.3443 97.576 74.3363 97.648 74.3203 97.68C74.3043 97.712 74.2563 97.848 74.1763 98.088C74.1123 98.312 73.9923 98.632 73.8163 99.048C73.4963 99.88 73.3363 100.464 73.3363 100.8C73.3363 101.248 73.4883 101.472 73.7923 101.472C74.1283 101.472 74.5283 101.272 74.9923 100.872C75.4723 100.472 75.9123 100 76.3123 99.456C76.3603 99.408 76.4003 99.384 76.4323 99.384C76.4963 99.384 76.5283 99.44 76.5283 99.552C76.5283 99.664 76.4883 99.768 76.4083 99.864C75.7683 100.712 75.1923 101.304 74.6803 101.64C74.1683 101.96 73.6723 102.12 73.1923 102.12ZM78.4978 94.704C78.3058 94.704 78.1298 94.616 77.9698 94.44C77.8098 94.264 77.7298 94.08 77.7298 93.888C77.7298 93.44 77.9778 93.216 78.4738 93.216C78.9538 93.216 79.1938 93.448 79.1938 93.912C79.1938 94.44 78.9618 94.704 78.4978 94.704ZM78.1858 102.192C77.6418 102.192 77.1858 102.008 76.8178 101.64C76.4658 101.256 76.2898 100.704 76.2898 99.984C76.2898 99.104 76.5298 98.208 77.0098 97.296C77.1858 96.96 77.4898 96.792 77.9218 96.792C78.1778 96.792 78.3058 96.872 78.3058 97.032C78.3058 97.08 78.2818 97.152 78.2338 97.248C77.6738 98.32 77.3938 99.24 77.3938 100.008C77.3938 100.568 77.4898 100.976 77.6818 101.232C77.8898 101.488 78.1698 101.616 78.5218 101.616C79.0818 101.616 79.6418 101.408 80.2018 100.992C80.7618 100.56 81.3058 100.04 81.8338 99.432C81.8818 99.352 81.9538 99.312 82.0498 99.312C82.1138 99.312 82.1458 99.344 82.1458 99.408C82.1458 99.456 82.1138 99.528 82.0498 99.624C82.0018 99.704 81.9538 99.784 81.9058 99.864C81.6978 100.136 81.4498 100.416 81.1618 100.704C80.8738 100.992 80.5378 101.264 80.1538 101.52C79.8498 101.728 79.5218 101.888 79.1698 102C78.8338 102.128 78.5058 102.192 78.1858 102.192ZM84.797 102.288C83.869 102.288 83.141 102.016 82.613 101.472C82.101 100.928 81.845 100.168 81.845 99.192C81.845 98.392 81.989 97.608 82.277 96.84C81.797 96.84 81.421 96.792 81.149 96.696C80.701 96.6 80.477 96.432 80.477 96.192C80.477 96.096 80.549 96.048 80.693 96.048C80.805 96.048 80.933 96.056 81.077 96.072C81.237 96.072 81.421 96.08 81.629 96.096C81.853 96.112 82.045 96.128 82.205 96.144C82.365 96.144 82.493 96.144 82.589 96.144L83.429 94.176C83.621 93.712 83.797 93.336 83.957 93.048C84.117 92.76 84.245 92.56 84.341 92.448C84.581 92.192 84.901 92.064 85.301 92.064C85.685 92.064 85.877 92.144 85.877 92.304L85.037 93.624C84.733 94.104 84.461 94.56 84.221 94.992C83.997 95.424 83.797 95.832 83.621 96.216C84.613 96.216 85.405 96.216 85.997 96.216C86.589 96.2 86.989 96.192 87.197 96.192H87.389C87.581 96.192 87.677 96.216 87.677 96.264C87.677 96.36 87.485 96.448 87.101 96.528C86.413 96.608 85.765 96.672 85.157 96.72C84.549 96.768 83.973 96.792 83.429 96.792C83.269 97.208 83.133 97.648 83.021 98.112C82.925 98.56 82.877 98.992 82.877 99.408C82.877 100.032 83.021 100.576 83.309 101.04C83.597 101.504 84.109 101.736 84.845 101.736C85.725 101.736 86.421 101.528 86.933 101.112C87.461 100.68 87.997 100.128 88.541 99.456C88.621 99.36 88.693 99.312 88.757 99.312C88.805 99.312 88.829 99.352 88.829 99.432C88.829 99.544 88.765 99.688 88.637 99.864C87.949 100.744 87.301 101.368 86.693 101.736C86.101 102.104 85.469 102.288 84.797 102.288ZM91.5236 102.288C90.5956 102.288 89.8676 102.016 89.3396 101.472C88.8276 100.928 88.5716 100.168 88.5716 99.192C88.5716 98.392 88.7156 97.608 89.0036 96.84C88.5236 96.84 88.1476 96.792 87.8756 96.696C87.4276 96.6 87.2036 96.432 87.2036 96.192C87.2036 96.096 87.2756 96.048 87.4196 96.048C87.5316 96.048 87.6596 96.056 87.8036 96.072C87.9636 96.072 88.1476 96.08 88.3556 96.096C88.5796 96.112 88.7716 96.128 88.9316 96.144C89.0916 96.144 89.2196 96.144 89.3156 96.144L90.1556 94.176C90.3476 93.712 90.5236 93.336 90.6836 93.048C90.8436 92.76 90.9716 92.56 91.0676 92.448C91.3076 92.192 91.6276 92.064 92.0276 92.064C92.4116 92.064 92.6036 92.144 92.6036 92.304L91.7636 93.624C91.4596 94.104 91.1876 94.56 90.9476 94.992C90.7236 95.424 90.5236 95.832 90.3476 96.216C91.3396 96.216 92.1316 96.216 92.7236 96.216C93.3156 96.2 93.7156 96.192 93.9236 96.192H94.1156C94.3076 96.192 94.4036 96.216 94.4036 96.264C94.4036 96.36 94.2116 96.448 93.8276 96.528C93.1396 96.608 92.4916 96.672 91.8836 96.72C91.2756 96.768 90.6996 96.792 90.1556 96.792C89.9956 97.208 89.8596 97.648 89.7476 98.112C89.6516 98.56 89.6036 98.992 89.6036 99.408C89.6036 100.032 89.7476 100.576 90.0356 101.04C90.3236 101.504 90.8356 101.736 91.5716 101.736C92.4516 101.736 93.1476 101.528 93.6596 101.112C94.1876 100.68 94.7236 100.128 95.2676 99.456C95.3476 99.36 95.4196 99.312 95.4836 99.312C95.5316 99.312 95.5556 99.352 95.5556 99.432C95.5556 99.544 95.4916 99.688 95.3636 99.864C94.6756 100.744 94.0276 101.368 93.4196 101.736C92.8276 102.104 92.1956 102.288 91.5236 102.288ZM97.6742 102.192C97.0182 102.192 96.4502 102.008 95.9702 101.64C95.5062 101.256 95.2742 100.68 95.2742 99.912C95.2742 99.064 95.5542 98.192 96.1142 97.296C96.4022 96.832 96.7542 96.464 97.1702 96.192C97.5862 95.904 97.9542 95.76 98.2742 95.76C98.7382 95.76 98.9702 96.04 98.9702 96.6C98.9702 97.08 98.6502 97.664 98.0102 98.352C97.4182 98.96 96.8582 99.376 96.3302 99.6C96.3142 99.664 96.2982 99.736 96.2822 99.816C96.2822 99.88 96.2822 99.952 96.2822 100.032C96.2822 101.04 96.8822 101.544 98.0822 101.544C98.7702 101.544 99.4102 101.336 100.002 100.92C100.61 100.488 101.138 100 101.586 99.456C101.666 99.36 101.738 99.312 101.802 99.312C101.866 99.312 101.898 99.344 101.898 99.408C101.898 99.472 101.866 99.56 101.802 99.672C101.738 99.768 101.69 99.832 101.658 99.864C101.402 100.216 101.13 100.528 100.842 100.8C100.57 101.072 100.202 101.336 99.7382 101.592C99.4022 101.8 99.0502 101.952 98.6822 102.048C98.3302 102.144 97.9942 102.192 97.6742 102.192ZM96.4262 99.096C96.6342 98.984 96.8342 98.856 97.0262 98.712C97.2342 98.552 97.4342 98.368 97.6262 98.16C98.0582 97.648 98.2742 97.2 98.2742 96.816C98.2742 96.576 98.2022 96.456 98.0582 96.456C97.9302 96.456 97.7622 96.568 97.5542 96.792C97.3622 97 97.1782 97.264 97.0022 97.584C96.6982 98.208 96.5062 98.712 96.4262 99.096ZM101.459 102.216C101.347 102.216 101.227 102.144 101.099 102C100.987 101.856 100.931 101.728 100.931 101.616V101.544L101.147 101.136C101.275 100.768 101.403 100.328 101.531 99.816C101.659 99.288 101.779 98.688 101.891 98.016C101.907 97.856 101.931 97.688 101.963 97.512C101.995 97.32 102.027 97.104 102.059 96.864C102.139 96.544 102.387 96.384 102.803 96.384C102.931 96.384 102.995 96.432 102.995 96.528C102.995 96.56 102.979 96.672 102.947 96.864C102.915 97.056 102.867 97.32 102.803 97.656C102.739 98.024 102.659 98.424 102.563 98.856C102.483 99.288 102.387 99.752 102.275 100.248L103.403 98.352C103.963 97.408 104.435 96.936 104.819 96.936C105.059 96.936 105.187 97.08 105.203 97.368C105.251 98.04 105.283 98.704 105.299 99.36C105.331 100.016 105.419 100.56 105.563 100.992C105.723 101.424 106.003 101.64 106.403 101.64C106.675 101.64 106.939 101.584 107.195 101.472C107.467 101.36 107.771 101.152 108.107 100.848C108.443 100.528 108.843 100.064 109.307 99.456C109.323 99.424 109.355 99.384 109.403 99.336C109.451 99.288 109.507 99.264 109.571 99.264C109.635 99.264 109.667 99.296 109.667 99.36C109.667 99.424 109.627 99.512 109.547 99.624C109.483 99.736 109.435 99.816 109.403 99.864C108.971 100.504 108.483 101.04 107.939 101.472C107.395 101.904 106.883 102.12 106.403 102.12C105.699 102.12 105.179 101.768 104.843 101.064C104.523 100.344 104.299 99.328 104.171 98.016C103.915 98.288 103.611 98.696 103.259 99.24C102.923 99.784 102.531 100.48 102.083 101.328C102.051 101.408 102.003 101.504 101.939 101.616C101.875 101.712 101.803 101.84 101.723 102C101.659 102.144 101.571 102.216 101.459 102.216ZM109.673 102.36C109.561 102.36 109.449 102.264 109.337 102.072C109.241 101.896 109.193 101.744 109.193 101.616C109.193 101.344 109.337 101.152 109.625 101.04C109.689 100.928 109.905 100.776 110.273 100.584C110.625 100.408 110.865 100.32 110.993 100.32C111.009 100.32 111.025 100.328 111.041 100.344L111.065 100.368C110.953 100.48 110.833 100.624 110.705 100.8C110.593 100.976 110.489 101.232 110.393 101.568C110.233 102.096 109.993 102.36 109.673 102.36ZM127.083 89.616C126.923 89.6 126.827 89.016 126.795 87.864C126.859 87.544 126.987 87.128 127.179 86.616C127.371 86.088 127.643 85.472 127.995 84.768C128.091 84.736 128.163 84.72 128.211 84.72C128.499 84.72 128.643 85.016 128.643 85.608C128.483 85.864 128.323 86.128 128.163 86.4C128.003 86.656 127.851 86.912 127.707 87.168C127.275 88 127.067 88.816 127.083 89.616ZM120.339 105.36C117.891 105.36 115.995 104.776 114.651 103.608C113.547 102.616 112.995 101.352 112.995 99.816C112.995 98.088 113.707 96.68 115.131 95.592C116.411 94.6 117.875 94.096 119.523 94.08C120.899 94.08 121.979 94.432 122.763 95.136C123.451 95.776 123.795 96.56 123.795 97.488C123.795 98.432 123.459 99.24 122.787 99.912C122.019 100.648 121.043 101.016 119.859 101.016C119.715 101.016 119.643 100.992 119.643 100.944C119.643 100.848 119.715 100.792 119.859 100.776C120.371 100.664 120.827 100.504 121.227 100.296C121.643 100.088 121.995 99.816 122.283 99.48C122.827 98.888 123.099 98.2 123.099 97.416C123.099 96.552 122.787 95.848 122.163 95.304C121.523 94.712 120.675 94.416 119.619 94.416C118.179 94.416 116.915 94.888 115.827 95.832C114.643 96.824 114.051 98.088 114.051 99.624C114.051 101.128 114.507 102.336 115.419 103.248C116.475 104.368 118.059 104.928 120.171 104.928C122.235 104.928 123.963 104.312 125.355 103.08C126.875 101.768 127.635 100.112 127.635 98.112C127.635 96.656 127.075 95.272 125.955 93.96L123.339 91.272C122.859 90.776 122.507 90.288 122.283 89.808C122.075 89.312 121.971 88.84 121.971 88.392C121.971 87.4 122.355 86.608 123.123 86.016C123.859 85.424 124.715 85.128 125.691 85.128C126.075 85.128 126.459 85.184 126.843 85.296C127.227 85.408 127.419 85.544 127.419 85.704C127.419 85.784 127.371 85.824 127.275 85.824C127.227 85.824 127.035 85.752 126.699 85.608C126.427 85.496 126.147 85.44 125.859 85.44C125.139 85.44 124.499 85.704 123.939 86.232C123.395 86.776 123.123 87.4 123.123 88.104C123.123 88.904 123.499 89.704 124.251 90.504L126.699 92.784C127.483 93.504 128.059 94.288 128.427 95.136C128.811 95.968 129.003 96.848 129.003 97.776C129.003 99.92 128.083 101.744 126.243 103.248C124.515 104.656 122.547 105.36 120.339 105.36ZM126.123 97.488C126.043 97.52 126.003 97.472 126.003 97.344C125.891 96.56 125.571 95.76 125.043 94.944C125.011 95.184 124.963 95.456 124.899 95.76C124.595 95.808 124.323 95.704 124.083 95.448C124.051 95.4 124.011 95.328 123.963 95.232C123.931 95.136 123.915 95.024 123.915 94.896V94.728C123.915 94.552 123.939 94.432 123.987 94.368C124.323 94.608 124.603 94.704 124.827 94.656C124.459 94.128 124.035 93.648 123.555 93.216C123.075 92.768 122.555 92.368 121.995 92.016C120.827 91.312 119.795 90.96 118.899 90.96C117.939 90.96 117.275 91.36 116.907 92.16C117.083 92.032 117.259 91.968 117.435 91.968C117.627 91.968 117.811 92.024 117.987 92.136C118.307 92.36 118.459 92.616 118.443 92.904C118.235 92.808 118.011 92.76 117.771 92.76C117.323 92.76 116.995 92.952 116.787 93.336C116.611 93.064 116.523 92.832 116.523 92.64C116.523 92.4 116.635 92.104 116.859 91.752C117.323 90.984 118.043 90.6 119.019 90.6C120.475 90.6 121.979 91.32 123.531 92.76C124.331 93.464 124.979 94.192 125.475 94.944C125.971 95.68 126.219 96.448 126.219 97.248V97.32C126.219 97.4 126.187 97.456 126.123 97.488ZM132.105 102.504C131.913 102.504 131.713 102.424 131.505 102.264C131.313 102.12 131.217 101.952 131.217 101.76C131.217 101.248 131.417 100.336 131.817 99.024C132.425 97.024 133.193 95.16 134.121 93.432C135.497 90.808 136.801 89.496 138.033 89.496C138.785 89.496 139.161 90.12 139.161 91.368C139.161 92.28 138.489 93.424 137.145 94.8L134.049 97.68C133.937 97.792 133.809 97.928 133.665 98.088C133.537 98.232 133.385 98.408 133.209 98.616C133.097 98.792 132.929 99.168 132.705 99.744C132.513 100.32 132.417 100.72 132.417 100.944C132.417 101.12 132.457 101.272 132.537 101.4C132.569 101.368 132.657 101.296 132.801 101.184C132.961 101.056 133.169 100.88 133.425 100.656C134.961 99.36 136.089 98.712 136.809 98.712C136.953 98.712 137.073 98.832 137.169 99.072C137.281 99.312 137.393 99.664 137.505 100.128C137.777 101.136 138.201 101.64 138.777 101.64C139.289 101.64 139.969 101.24 140.817 100.44C140.961 100.28 141.105 100.12 141.249 99.96C141.409 99.784 141.553 99.616 141.681 99.456C141.761 99.328 141.841 99.264 141.921 99.264C142.017 99.264 142.041 99.328 141.993 99.456C141.977 99.52 141.945 99.6 141.897 99.696C141.849 99.776 141.809 99.832 141.777 99.864C141.457 100.296 141.137 100.688 140.817 101.04C140.417 101.424 140.017 101.728 139.617 101.952C139.217 102.176 138.833 102.288 138.465 102.288C138.129 102.288 137.809 102.192 137.505 102C137.217 101.792 136.961 101.472 136.737 101.04C136.289 100.176 135.953 99.744 135.729 99.744C135.425 99.744 135.041 99.912 134.577 100.248C134.113 100.568 133.585 101.072 132.993 101.76L132.417 102.432C132.305 102.48 132.201 102.504 132.105 102.504ZM133.425 97.632C133.953 97.264 134.489 96.832 135.033 96.336C135.593 95.824 136.153 95.264 136.713 94.656C138.105 93.088 138.801 91.872 138.801 91.008C138.801 90.496 138.601 90.24 138.201 90.24C137.113 90.24 135.689 92.272 133.929 96.336C133.593 97.072 133.425 97.504 133.425 97.632ZM141.944 102.144C141.288 102.144 140.96 101.824 140.96 101.184C140.96 100.576 141.4 99.728 142.28 98.64C143.08 97.632 143.776 96.936 144.368 96.552C144.96 96.168 145.512 95.976 146.024 95.976C146.632 95.976 146.936 96.152 146.936 96.504C146.936 96.584 146.856 96.704 146.696 96.864C146.536 97.008 146.448 97.096 146.432 97.128C146.128 97.624 145.976 98.632 145.976 100.152C145.976 101.032 146.168 101.472 146.552 101.472C146.904 101.472 147.312 101.264 147.776 100.848C148.24 100.432 148.672 99.968 149.072 99.456C149.12 99.408 149.16 99.384 149.192 99.384C149.256 99.384 149.288 99.424 149.288 99.504C149.288 99.536 149.272 99.592 149.24 99.672C149.224 99.752 149.2 99.816 149.168 99.864C148.512 100.744 147.944 101.336 147.464 101.64C147 101.944 146.544 102.096 146.096 102.096C145.376 102.096 145.024 101.328 145.04 99.792C144.736 100.336 144.296 100.848 143.72 101.328C143.048 101.872 142.456 102.144 141.944 102.144ZM142.592 101.496C142.864 101.496 143.152 101.384 143.456 101.16C144.4 100.408 145.016 99 145.304 96.936C145.256 96.936 145.224 96.928 145.208 96.912C144.888 96.912 144.464 97.104 143.936 97.488C143.488 97.792 143.128 98.12 142.856 98.472C142.216 99.304 141.896 100.024 141.896 100.632C141.896 101.208 142.128 101.496 142.592 101.496ZM152.903 102.12C152.327 102.12 152.039 101.76 152.039 101.04C152.039 100.656 152.183 100.176 152.471 99.6C152.743 98.96 152.879 98.496 152.879 98.208C152.879 98 152.799 97.84 152.639 97.728C152.495 97.616 152.311 97.512 152.087 97.416C151.927 97.336 151.759 97.24 151.583 97.128C151.407 97.016 151.263 96.904 151.151 96.792C151.039 97.032 150.791 97.448 150.407 98.04C150.023 98.632 149.607 99.24 149.159 99.864C149.095 99.944 149.031 99.984 148.967 99.984C148.903 99.984 148.871 99.928 148.871 99.816C148.871 99.704 148.935 99.584 149.063 99.456C149.191 99.296 149.375 99.04 149.615 98.688C149.855 98.32 150.095 97.928 150.335 97.512C150.575 97.08 150.759 96.704 150.887 96.384C150.807 96.112 150.743 95.88 150.695 95.688C150.647 95.496 150.623 95.304 150.623 95.112C150.623 94.776 150.719 94.472 150.911 94.2C151.103 93.928 151.351 93.792 151.655 93.792C152.087 93.792 152.303 94.048 152.303 94.56C152.303 95.12 152.087 95.704 151.655 96.312C151.719 96.408 151.799 96.488 151.895 96.552C151.991 96.616 152.143 96.688 152.351 96.768C152.463 96.816 152.567 96.848 152.663 96.864C152.775 96.88 152.871 96.888 152.951 96.888C153.079 96.888 153.183 96.88 153.263 96.864C153.359 96.848 153.439 96.84 153.503 96.84C153.599 96.84 153.711 96.896 153.839 97.008C153.983 97.104 154.055 97.256 154.055 97.464C154.055 97.576 154.047 97.648 154.031 97.68C154.015 97.712 153.967 97.848 153.887 98.088C153.823 98.312 153.703 98.632 153.527 99.048C153.207 99.88 153.047 100.464 153.047 100.8C153.047 101.248 153.199 101.472 153.503 101.472C153.839 101.472 154.239 101.272 154.703 100.872C155.183 100.472 155.623 100 156.023 99.456C156.071 99.408 156.111 99.384 156.143 99.384C156.207 99.384 156.239 99.44 156.239 99.552C156.239 99.664 156.199 99.768 156.119 99.864C155.479 100.712 154.903 101.304 154.391 101.64C153.879 101.96 153.383 102.12 152.903 102.12ZM158.401 102.192C157.745 102.192 157.177 102.008 156.697 101.64C156.233 101.256 156.001 100.68 156.001 99.912C156.001 99.064 156.281 98.192 156.841 97.296C157.129 96.832 157.481 96.464 157.897 96.192C158.313 95.904 158.681 95.76 159.001 95.76C159.465 95.76 159.697 96.04 159.697 96.6C159.697 97.08 159.377 97.664 158.737 98.352C158.145 98.96 157.585 99.376 157.057 99.6C157.041 99.664 157.025 99.736 157.009 99.816C157.009 99.88 157.009 99.952 157.009 100.032C157.009 101.04 157.609 101.544 158.809 101.544C159.497 101.544 160.137 101.336 160.729 100.92C161.337 100.488 161.865 100 162.313 99.456C162.393 99.36 162.465 99.312 162.529 99.312C162.593 99.312 162.625 99.344 162.625 99.408C162.625 99.472 162.593 99.56 162.529 99.672C162.465 99.768 162.417 99.832 162.385 99.864C162.129 100.216 161.857 100.528 161.569 100.8C161.297 101.072 160.929 101.336 160.465 101.592C160.129 101.8 159.777 101.952 159.409 102.048C159.057 102.144 158.721 102.192 158.401 102.192ZM157.153 99.096C157.361 98.984 157.561 98.856 157.753 98.712C157.961 98.552 158.161 98.368 158.353 98.16C158.785 97.648 159.001 97.2 159.001 96.816C159.001 96.576 158.929 96.456 158.785 96.456C158.657 96.456 158.489 96.568 158.281 96.792C158.089 97 157.905 97.264 157.729 97.584C157.425 98.208 157.233 98.712 157.153 99.096ZM168.985 102.288C168.057 102.288 167.329 102.016 166.801 101.472C166.289 100.928 166.033 100.168 166.033 99.192C166.033 98.392 166.177 97.608 166.465 96.84C165.985 96.84 165.609 96.792 165.337 96.696C164.889 96.6 164.665 96.432 164.665 96.192C164.665 96.096 164.737 96.048 164.881 96.048C164.993 96.048 165.121 96.056 165.265 96.072C165.425 96.072 165.609 96.08 165.817 96.096C166.041 96.112 166.233 96.128 166.393 96.144C166.553 96.144 166.681 96.144 166.777 96.144L167.617 94.176C167.809 93.712 167.985 93.336 168.145 93.048C168.305 92.76 168.433 92.56 168.529 92.448C168.769 92.192 169.089 92.064 169.489 92.064C169.873 92.064 170.065 92.144 170.065 92.304L169.225 93.624C168.921 94.104 168.649 94.56 168.409 94.992C168.185 95.424 167.985 95.832 167.809 96.216C168.801 96.216 169.593 96.216 170.185 96.216C170.777 96.2 171.177 96.192 171.385 96.192H171.577C171.769 96.192 171.865 96.216 171.865 96.264C171.865 96.36 171.673 96.448 171.289 96.528C170.601 96.608 169.953 96.672 169.345 96.72C168.737 96.768 168.161 96.792 167.617 96.792C167.457 97.208 167.321 97.648 167.209 98.112C167.113 98.56 167.065 98.992 167.065 99.408C167.065 100.032 167.209 100.576 167.497 101.04C167.785 101.504 168.297 101.736 169.033 101.736C169.913 101.736 170.609 101.528 171.121 101.112C171.649 100.68 172.185 100.128 172.729 99.456C172.809 99.36 172.881 99.312 172.945 99.312C172.993 99.312 173.017 99.352 173.017 99.432C173.017 99.544 172.953 99.688 172.825 99.864C172.137 100.744 171.489 101.368 170.881 101.736C170.289 102.104 169.657 102.288 168.985 102.288ZM173.191 102.504C172.999 102.504 172.799 102.424 172.591 102.264C172.399 102.12 172.303 101.952 172.303 101.76C172.303 101.248 172.503 100.336 172.903 99.024C173.511 97.024 174.279 95.16 175.207 93.432C176.583 90.808 177.887 89.496 179.119 89.496C179.871 89.496 180.247 90.12 180.247 91.368C180.247 92.28 179.575 93.424 178.231 94.8L175.135 97.68C175.023 97.792 174.895 97.928 174.751 98.088C174.623 98.232 174.471 98.408 174.295 98.616C174.183 98.792 174.015 99.168 173.791 99.744C173.599 100.32 173.503 100.72 173.503 100.944C173.503 101.12 173.543 101.272 173.623 101.4C173.655 101.368 173.743 101.296 173.887 101.184C174.047 101.056 174.255 100.88 174.511 100.656C176.047 99.36 177.175 98.712 177.895 98.712C178.039 98.712 178.159 98.832 178.255 99.072C178.367 99.312 178.479 99.664 178.591 100.128C178.863 101.136 179.287 101.64 179.863 101.64C180.375 101.64 181.055 101.24 181.903 100.44C182.047 100.28 182.191 100.12 182.335 99.96C182.495 99.784 182.639 99.616 182.767 99.456C182.847 99.328 182.927 99.264 183.007 99.264C183.103 99.264 183.127 99.328 183.079 99.456C183.063 99.52 183.031 99.6 182.983 99.696C182.935 99.776 182.895 99.832 182.863 99.864C182.543 100.296 182.223 100.688 181.903 101.04C181.503 101.424 181.103 101.728 180.703 101.952C180.303 102.176 179.919 102.288 179.551 102.288C179.215 102.288 178.895 102.192 178.591 102C178.303 101.792 178.047 101.472 177.823 101.04C177.375 100.176 177.039 99.744 176.815 99.744C176.511 99.744 176.127 99.912 175.663 100.248C175.199 100.568 174.671 101.072 174.079 101.76L173.503 102.432C173.391 102.48 173.287 102.504 173.191 102.504ZM174.511 97.632C175.039 97.264 175.575 96.832 176.119 96.336C176.679 95.824 177.239 95.264 177.799 94.656C179.191 93.088 179.887 91.872 179.887 91.008C179.887 90.496 179.687 90.24 179.287 90.24C178.199 90.24 176.775 92.272 175.015 96.336C174.679 97.072 174.511 97.504 174.511 97.632ZM185.166 102.192C184.51 102.192 183.942 102.008 183.462 101.64C182.998 101.256 182.766 100.68 182.766 99.912C182.766 99.064 183.046 98.192 183.606 97.296C183.894 96.832 184.246 96.464 184.662 96.192C185.078 95.904 185.446 95.76 185.766 95.76C186.23 95.76 186.462 96.04 186.462 96.6C186.462 97.08 186.142 97.664 185.502 98.352C184.91 98.96 184.35 99.376 183.822 99.6C183.806 99.664 183.79 99.736 183.774 99.816C183.774 99.88 183.774 99.952 183.774 100.032C183.774 101.04 184.374 101.544 185.574 101.544C186.262 101.544 186.902 101.336 187.494 100.92C188.102 100.488 188.63 100 189.078 99.456C189.158 99.36 189.23 99.312 189.294 99.312C189.358 99.312 189.39 99.344 189.39 99.408C189.39 99.472 189.358 99.56 189.294 99.672C189.23 99.768 189.182 99.832 189.15 99.864C188.894 100.216 188.622 100.528 188.334 100.8C188.062 101.072 187.694 101.336 187.23 101.592C186.894 101.8 186.542 101.952 186.174 102.048C185.822 102.144 185.486 102.192 185.166 102.192ZM183.918 99.096C184.126 98.984 184.326 98.856 184.518 98.712C184.726 98.552 184.926 98.368 185.118 98.16C185.55 97.648 185.766 97.2 185.766 96.816C185.766 96.576 185.694 96.456 185.55 96.456C185.422 96.456 185.254 96.568 185.046 96.792C184.854 97 184.67 97.264 184.494 97.584C184.19 98.208 183.998 98.712 183.918 99.096ZM201.342 105.336C201.262 105.336 201.222 105.192 201.222 104.904C201.222 104.824 201.222 104.744 201.222 104.664C201.222 104.584 201.23 104.496 201.246 104.4C201.278 104.176 201.31 103.944 201.342 103.704C201.374 103.464 201.406 103.24 201.438 103.032C201.278 103.08 201.118 103.104 200.958 103.104C199.918 103.104 199.398 102.304 199.398 100.704C199.398 99.984 199.51 99.144 199.734 98.184C199.974 97.224 200.342 96.152 200.838 94.968L203.358 89.088C203.598 88.528 203.766 88.008 203.862 87.528C203.974 87.048 204.03 86.624 204.03 86.256C204.03 85.136 203.502 84.576 202.446 84.576C202.03 84.576 201.574 84.656 201.078 84.816C199.67 85.248 198.342 86 197.094 87.072C196.47 87.568 195.918 88.112 195.438 88.704C194.958 89.296 194.534 89.92 194.166 90.576C193.766 91.312 193.462 92.008 193.254 92.664C193.062 93.32 192.966 93.936 192.966 94.512C192.966 96.432 193.686 97.392 195.126 97.392C195.494 97.392 195.918 97.304 196.398 97.128C196.67 97.016 196.934 96.88 197.19 96.72C197.462 96.544 197.726 96.328 197.982 96.072C198.11 95.896 198.238 95.736 198.366 95.592C198.51 95.432 198.654 95.272 198.798 95.112C198.958 94.92 199.038 94.896 199.038 95.04V95.136C199.038 95.2 199.014 95.28 198.966 95.376C198.358 96.464 197.486 97.184 196.35 97.536C196.078 97.6 195.814 97.656 195.558 97.704C195.302 97.752 195.054 97.776 194.814 97.776C193.006 97.776 192.102 96.68 192.102 94.488C192.102 93 192.582 91.536 193.542 90.096C195.702 86.976 198.206 85.056 201.054 84.336C201.326 84.272 201.582 84.232 201.822 84.216C202.078 84.184 202.318 84.168 202.542 84.168C204.286 84.168 205.158 85 205.158 86.664C205.158 87.016 205.11 87.416 205.014 87.864C204.934 88.312 204.806 88.792 204.63 89.304L202.134 95.208C201.622 96.424 201.246 97.496 201.006 98.424C200.782 99.352 200.67 100.128 200.67 100.752C200.67 101.92 200.926 102.504 201.438 102.504H201.534C201.63 101.944 201.75 101.352 201.894 100.728C202.038 100.104 202.19 99.472 202.35 98.832C202.462 98.448 202.59 98.032 202.734 97.584C202.878 97.12 203.03 96.64 203.19 96.144C203.094 96.144 203.03 96.152 202.998 96.168L202.974 96.144C202.942 96.032 203.118 95.736 203.502 95.256C203.918 94.12 204.39 92.992 204.918 91.872C205.462 90.736 206.062 89.6 206.718 88.464C208.238 85.824 209.534 84.232 210.606 83.688C210.686 83.64 210.766 83.616 210.846 83.616C211.054 83.616 211.158 83.696 211.158 83.856C211.158 83.936 211.11 84.016 211.014 84.096L210.03 84.792C209.534 85.192 208.99 85.8 208.398 86.616C207.822 87.432 207.206 88.456 206.55 89.688C205.43 91.704 204.566 93.504 203.958 95.088C204.246 95.264 204.43 95.504 204.51 95.808C204.542 95.968 204.502 96.184 204.39 96.456C204.294 96.728 204.174 96.888 204.03 96.936C203.87 96.68 203.71 96.48 203.55 96.336C203.182 97.424 202.854 98.48 202.566 99.504C202.278 100.512 202.046 101.488 201.87 102.432C203.15 102 204.894 100.152 207.102 96.888C209.198 93.8 210.438 91.44 210.822 89.808C210.934 89.408 210.99 89.208 210.99 89.208C211.054 89.032 211.23 88.944 211.518 88.944C211.854 88.944 212.022 89.04 212.022 89.232C212.022 89.248 211.958 89.448 211.83 89.832C211.302 91.352 210.91 92.88 210.654 94.416C210.398 95.936 210.27 97.456 210.27 98.976C210.27 101.312 210.726 102.48 211.638 102.48C212.214 102.48 212.87 102 213.606 101.04C213.718 100.896 213.894 100.648 214.134 100.296C214.374 99.928 214.67 99.456 215.022 98.88C215.102 98.768 215.174 98.712 215.238 98.712C215.334 98.712 215.35 98.792 215.286 98.952C213.878 101.512 212.598 102.792 211.446 102.792C209.782 102.792 208.95 101.584 208.95 99.168C208.95 98.464 209.022 97.64 209.166 96.696C209.326 95.752 209.55 94.696 209.838 93.528C206.51 98.952 203.83 102.08 201.798 102.912C201.686 103.52 201.59 104.176 201.51 104.88C201.494 105.184 201.438 105.336 201.342 105.336ZM214.358 102.216C214.246 102.216 214.126 102.144 213.998 102C213.886 101.856 213.83 101.728 213.83 101.616V101.544L214.046 101.136C214.174 100.768 214.302 100.328 214.43 99.816C214.558 99.288 214.678 98.688 214.79 98.016C214.806 97.856 214.83 97.688 214.862 97.512C214.894 97.32 214.926 97.104 214.958 96.864C215.038 96.544 215.286 96.384 215.702 96.384C215.83 96.384 215.894 96.432 215.894 96.528C215.894 96.56 215.878 96.672 215.846 96.864C215.814 97.056 215.766 97.32 215.702 97.656C215.638 98.024 215.558 98.424 215.462 98.856C215.382 99.288 215.286 99.752 215.174 100.248L216.302 98.352C216.862 97.408 217.334 96.936 217.718 96.936C217.958 96.936 218.086 97.08 218.102 97.368C218.15 98.04 218.182 98.704 218.198 99.36C218.23 100.016 218.318 100.56 218.462 100.992C218.622 101.424 218.902 101.64 219.302 101.64C219.574 101.64 219.838 101.584 220.094 101.472C220.366 101.36 220.67 101.152 221.006 100.848C221.342 100.528 221.742 100.064 222.206 99.456C222.222 99.424 222.254 99.384 222.302 99.336C222.35 99.288 222.406 99.264 222.47 99.264C222.534 99.264 222.566 99.296 222.566 99.36C222.566 99.424 222.526 99.512 222.446 99.624C222.382 99.736 222.334 99.816 222.302 99.864C221.87 100.504 221.382 101.04 220.838 101.472C220.294 101.904 219.782 102.12 219.302 102.12C218.598 102.12 218.078 101.768 217.742 101.064C217.422 100.344 217.198 99.328 217.07 98.016C216.814 98.288 216.51 98.696 216.158 99.24C215.822 99.784 215.43 100.48 214.982 101.328C214.95 101.408 214.902 101.504 214.838 101.616C214.774 101.712 214.702 101.84 214.622 102C214.558 102.144 214.47 102.216 214.358 102.216ZM222.668 102.504C222.476 102.504 222.276 102.424 222.068 102.264C221.876 102.12 221.78 101.952 221.78 101.76C221.78 101.248 221.98 100.336 222.38 99.024C222.988 97.024 223.756 95.16 224.684 93.432C226.06 90.808 227.364 89.496 228.596 89.496C229.348 89.496 229.724 90.12 229.724 91.368C229.724 92.28 229.052 93.424 227.708 94.8L224.612 97.68C224.5 97.792 224.372 97.928 224.228 98.088C224.1 98.232 223.948 98.408 223.772 98.616C223.66 98.792 223.492 99.168 223.268 99.744C223.076 100.32 222.98 100.72 222.98 100.944C222.98 101.12 223.02 101.272 223.1 101.4C223.132 101.368 223.22 101.296 223.364 101.184C223.524 101.056 223.732 100.88 223.988 100.656C225.524 99.36 226.652 98.712 227.372 98.712C227.516 98.712 227.636 98.832 227.732 99.072C227.844 99.312 227.956 99.664 228.068 100.128C228.34 101.136 228.764 101.64 229.34 101.64C229.852 101.64 230.532 101.24 231.38 100.44C231.524 100.28 231.668 100.12 231.812 99.96C231.972 99.784 232.116 99.616 232.244 99.456C232.324 99.328 232.404 99.264 232.484 99.264C232.58 99.264 232.604 99.328 232.556 99.456C232.54 99.52 232.508 99.6 232.46 99.696C232.412 99.776 232.372 99.832 232.34 99.864C232.02 100.296 231.7 100.688 231.38 101.04C230.98 101.424 230.58 101.728 230.18 101.952C229.78 102.176 229.396 102.288 229.028 102.288C228.692 102.288 228.372 102.192 228.068 102C227.78 101.792 227.524 101.472 227.3 101.04C226.852 100.176 226.516 99.744 226.292 99.744C225.988 99.744 225.604 99.912 225.14 100.248C224.676 100.568 224.148 101.072 223.556 101.76L222.98 102.432C222.868 102.48 222.764 102.504 222.668 102.504ZM223.988 97.632C224.516 97.264 225.052 96.832 225.596 96.336C226.156 95.824 226.716 95.264 227.276 94.656C228.668 93.088 229.364 91.872 229.364 91.008C229.364 90.496 229.164 90.24 228.764 90.24C227.676 90.24 226.252 92.272 224.492 96.336C224.156 97.072 223.988 97.504 223.988 97.632ZM234.643 102.192C233.987 102.192 233.419 102.008 232.939 101.64C232.475 101.256 232.243 100.68 232.243 99.912C232.243 99.064 232.523 98.192 233.083 97.296C233.371 96.832 233.723 96.464 234.139 96.192C234.555 95.904 234.923 95.76 235.243 95.76C235.707 95.76 235.939 96.04 235.939 96.6C235.939 97.08 235.619 97.664 234.979 98.352C234.387 98.96 233.827 99.376 233.299 99.6C233.283 99.664 233.267 99.736 233.251 99.816C233.251 99.88 233.251 99.952 233.251 100.032C233.251 101.04 233.851 101.544 235.051 101.544C235.739 101.544 236.379 101.336 236.971 100.92C237.579 100.488 238.107 100 238.555 99.456C238.635 99.36 238.707 99.312 238.771 99.312C238.835 99.312 238.867 99.344 238.867 99.408C238.867 99.472 238.835 99.56 238.771 99.672C238.707 99.768 238.659 99.832 238.627 99.864C238.371 100.216 238.099 100.528 237.811 100.8C237.539 101.072 237.171 101.336 236.707 101.592C236.371 101.8 236.019 101.952 235.651 102.048C235.299 102.144 234.963 102.192 234.643 102.192ZM233.395 99.096C233.603 98.984 233.803 98.856 233.995 98.712C234.203 98.552 234.403 98.368 234.595 98.16C235.027 97.648 235.243 97.2 235.243 96.816C235.243 96.576 235.171 96.456 235.027 96.456C234.899 96.456 234.731 96.568 234.523 96.792C234.331 97 234.147 97.264 233.971 97.584C233.667 98.208 233.475 98.712 233.395 99.096ZM238.788 102.144C238.132 102.144 237.804 101.824 237.804 101.184C237.804 100.576 238.244 99.728 239.124 98.64C239.924 97.632 240.62 96.936 241.212 96.552C241.804 96.168 242.356 95.976 242.868 95.976C243.476 95.976 243.78 96.152 243.78 96.504C243.78 96.584 243.7 96.704 243.54 96.864C243.38 97.008 243.292 97.096 243.276 97.128C242.972 97.624 242.82 98.632 242.82 100.152C242.82 101.032 243.012 101.472 243.396 101.472C243.748 101.472 244.156 101.264 244.62 100.848C245.084 100.432 245.516 99.968 245.916 99.456C245.964 99.408 246.004 99.384 246.036 99.384C246.1 99.384 246.132 99.424 246.132 99.504C246.132 99.536 246.116 99.592 246.084 99.672C246.068 99.752 246.044 99.816 246.012 99.864C245.356 100.744 244.788 101.336 244.308 101.64C243.844 101.944 243.388 102.096 242.94 102.096C242.22 102.096 241.868 101.328 241.884 99.792C241.58 100.336 241.14 100.848 240.564 101.328C239.892 101.872 239.3 102.144 238.788 102.144ZM239.436 101.496C239.708 101.496 239.996 101.384 240.3 101.16C241.244 100.408 241.86 99 242.148 96.936C242.1 96.936 242.068 96.928 242.052 96.912C241.732 96.912 241.308 97.104 240.78 97.488C240.332 97.792 239.972 98.12 239.7 98.472C239.06 99.304 238.74 100.024 238.74 100.632C238.74 101.208 238.972 101.496 239.436 101.496ZM249.747 102.12C249.171 102.12 248.883 101.76 248.883 101.04C248.883 100.656 249.027 100.176 249.315 99.6C249.587 98.96 249.723 98.496 249.723 98.208C249.723 98 249.643 97.84 249.483 97.728C249.339 97.616 249.155 97.512 248.931 97.416C248.771 97.336 248.603 97.24 248.427 97.128C248.251 97.016 248.107 96.904 247.995 96.792C247.883 97.032 247.635 97.448 247.251 98.04C246.867 98.632 246.451 99.24 246.003 99.864C245.939 99.944 245.875 99.984 245.811 99.984C245.747 99.984 245.715 99.928 245.715 99.816C245.715 99.704 245.779 99.584 245.907 99.456C246.035 99.296 246.219 99.04 246.459 98.688C246.699 98.32 246.939 97.928 247.179 97.512C247.419 97.08 247.603 96.704 247.731 96.384C247.651 96.112 247.587 95.88 247.539 95.688C247.491 95.496 247.467 95.304 247.467 95.112C247.467 94.776 247.563 94.472 247.755 94.2C247.947 93.928 248.195 93.792 248.499 93.792C248.931 93.792 249.147 94.048 249.147 94.56C249.147 95.12 248.931 95.704 248.499 96.312C248.563 96.408 248.643 96.488 248.739 96.552C248.835 96.616 248.987 96.688 249.195 96.768C249.307 96.816 249.411 96.848 249.507 96.864C249.619 96.88 249.715 96.888 249.795 96.888C249.923 96.888 250.027 96.88 250.107 96.864C250.203 96.848 250.283 96.84 250.347 96.84C250.443 96.84 250.555 96.896 250.683 97.008C250.827 97.104 250.899 97.256 250.899 97.464C250.899 97.576 250.891 97.648 250.875 97.68C250.859 97.712 250.811 97.848 250.731 98.088C250.667 98.312 250.547 98.632 250.371 99.048C250.051 99.88 249.891 100.464 249.891 100.8C249.891 101.248 250.043 101.472 250.347 101.472C250.683 101.472 251.083 101.272 251.547 100.872C252.027 100.472 252.467 100 252.867 99.456C252.915 99.408 252.955 99.384 252.987 99.384C253.051 99.384 253.083 99.44 253.083 99.552C253.083 99.664 253.043 99.768 252.963 99.864C252.323 100.712 251.747 101.304 251.235 101.64C250.723 101.96 250.227 102.12 249.747 102.12ZM253.396 102.12C252.692 102.12 252.34 101.728 252.34 100.944C252.34 100 252.988 99.024 254.284 98.016C255.484 97.072 256.596 96.6 257.62 96.6C257.668 96.6 257.724 96.608 257.788 96.624C257.868 96.64 257.932 96.648 257.98 96.648C258.012 96.648 258.1 96.432 258.244 96L260.164 90.624C260.276 90.32 260.412 89.952 260.572 89.52C260.732 89.088 260.932 88.592 261.172 88.032C261.316 87.76 261.42 87.624 261.484 87.624C261.852 87.624 262.036 87.784 262.036 88.104C262.036 88.328 261.964 88.68 261.82 89.16C261.692 89.64 261.484 90.24 261.196 90.96L260.044 93.864C259.772 94.568 259.532 95.24 259.324 95.88C259.132 96.504 258.964 97.088 258.82 97.632C258.66 98.208 258.58 98.904 258.58 99.72C258.58 101 258.884 101.64 259.492 101.64C259.86 101.64 260.276 101.488 260.74 101.184C261.22 100.88 261.788 100.304 262.444 99.456C262.476 99.424 262.524 99.368 262.588 99.288C262.668 99.208 262.716 99.168 262.732 99.168C262.78 99.168 262.804 99.2 262.804 99.264C262.804 99.36 262.78 99.464 262.732 99.576C262.684 99.672 262.62 99.768 262.54 99.864C261.948 100.696 261.372 101.28 260.812 101.616C260.252 101.936 259.724 102.096 259.228 102.096C258.092 102.096 257.508 101 257.476 98.808C257.364 99.064 257.148 99.36 256.828 99.696C256.524 100.016 256.132 100.384 255.652 100.8C254.628 101.68 253.876 102.12 253.396 102.12ZM253.996 101.28C254.46 101.28 255.044 100.928 255.748 100.224C256.02 99.952 256.26 99.688 256.468 99.432C256.692 99.16 256.908 98.88 257.116 98.592C257.276 98.32 257.42 98.064 257.548 97.824C257.676 97.568 257.78 97.32 257.86 97.08C257.796 97.064 257.724 97.056 257.644 97.056C257.564 97.04 257.468 97.032 257.356 97.032C255.9 97.032 254.724 97.84 253.828 99.456C253.556 99.904 253.42 100.312 253.42 100.68C253.42 101.08 253.612 101.28 253.996 101.28Z" fill="url(#paint1_linear_148_12)"/>
<defs>
<filter id="filter0_i_148_12" x="30.4089" y="12.64" width="193.868" height="70.624" filterUnits="userSpaceOnUse" color-interpolation-filters="sRGB">
<feFlood flood-opacity="0" result="BackgroundImageFix"/>
<feBlend mode="normal" in="SourceGraphic" in2="BackgroundImageFix" result="shape"/>
<feColorMatrix in="SourceAlpha" type="matrix" values="0 0 0 0 0 0 0 0 0 0 0 0 0 0 0 0 0 0 127 0" result="hardAlpha"/>
<feOffset dy="4"/>
<feGaussianBlur stdDeviation="2"/>
<feComposite in2="hardAlpha" operator="arithmetic" k2="-1" k3="1"/>
<feColorMatrix type="matrix" values="0 0 0 0 0 0 0 0 0 0 0 0 0 0 0 0 0 0 0.25 0"/>
<feBlend mode="normal" in2="shape" result="effect1_innerShadow_148_12"/>
</filter>
<linearGradient id="paint0_linear_148_12" x1="123.5" y1="0" x2="123.5" y2="106" gradientUnits="userSpaceOnUse">
<stop offset="0.3125" stop-color="#BAB86C"/>
<stop offset="1" stop-color="#BAB86C" stop-opacity="0"/>
</linearGradient>
<linearGradient id="paint1_linear_148_12" x1="131.5" y1="76" x2="131.5" y2="114" gradientUnits="userSpaceOnUse">
<stop offset="0.640625" stop-color="#7A7705"/>
<stop offset="0.921875" stop-color="#F79400" stop-opacity="0"/>
</linearGradient>
</defs>
</svg>
