<svg width="360" height="257" viewBox="0 0 360 257" fill="none" xmlns="http://www.w3.org/2000/svg">
<path fill-rule="evenodd" clip-rule="evenodd" d="M415.4 244.375L395.876 246.074C375.819 251.916 335.706 263.598 298.788 250.431C261.87 237.263 227.615 203.388 188.567 206.787C149.519 210.186 106.21 246.719 70.8896 221.127C35.5693 195.534 9.30242 99.5337 -3.83104 51.5334L-16.9645 3.53317L0.0772577 -129L19.0688 -126.558C38.0603 -124.116 76.0434 -119.232 114.026 -114.348C152.01 -109.464 189.993 -104.58 227.976 -99.6956C265.959 -94.8116 303.942 -89.9275 341.925 -85.0435C379.908 -80.1594 417.891 -75.2754 436.883 -72.8334L455.874 -70.3914L415.4 244.375Z" fill="#E6E38D" fill-opacity="0.35"/>
</svg>
